<svg width="482" height="249" viewBox="0 0 482 249" fill="none" xmlns="http://www.w3.org/2000/svg">
<path d="M134.5 144.5L125 132.5H87.5" stroke="white" stroke-linecap="round"/>
<path d="M238 46.5L260 24.5H309.5" stroke="white" stroke-linecap="round"/>
<path d="M317.072 8.00903V16.8159C317.072 18.2037 317.399 19.2312 318.053 19.8984C318.72 20.5655 319.628 20.8991 320.775 20.8991C321.923 20.8991 322.817 20.5722 323.457 19.9184C324.111 19.2512 324.438 18.217 324.438 16.8159V8.00903H325.839V16.7959C325.839 18.5706 325.366 19.905 324.418 20.7991C323.484 21.6931 322.263 22.1401 320.755 22.1401C319.247 22.1401 318.02 21.6931 317.072 20.7991C316.138 19.905 315.671 18.5706 315.671 16.7959V8.00903H317.072ZM330.346 13.4733C330.692 12.7394 331.24 12.1323 331.987 11.6519C332.747 11.1582 333.648 10.9113 334.689 10.9113C335.676 10.9113 336.564 11.1448 337.351 11.6119C338.152 12.0655 338.772 12.7194 339.212 13.5734C339.666 14.4141 339.893 15.3948 339.893 16.5157C339.893 17.6366 339.666 18.624 339.212 19.478C338.772 20.332 338.152 20.9925 337.351 21.4596C336.564 21.9266 335.676 22.1601 334.689 22.1601C333.661 22.1601 332.767 21.9199 332.007 21.4396C331.246 20.9458 330.692 20.332 330.346 19.5981V27.1641H328.964V11.0714H330.346V13.4733ZM338.472 16.5157C338.472 15.6083 338.292 14.8277 337.931 14.1739C337.585 13.5067 337.104 12.9996 336.49 12.6527C335.877 12.3057 335.183 12.1323 334.409 12.1323C333.661 12.1323 332.974 12.3124 332.347 12.6727C331.733 13.033 331.246 13.5467 330.886 14.2139C330.526 14.8811 330.346 15.655 330.346 16.5357C330.346 17.4164 330.526 18.1903 330.886 18.8575C331.246 19.5247 331.733 20.0385 332.347 20.3987C332.974 20.759 333.661 20.9392 334.409 20.9392C335.183 20.9392 335.877 20.7657 336.49 20.4188C337.104 20.0585 337.585 19.5447 337.931 18.8776C338.292 18.197 338.472 17.4097 338.472 16.5157Z" fill="white"/>
<path d="M390.327 148.859H395.351V150H388.926V136.009H390.327V148.859ZM402.134 150.16C401.106 150.16 400.179 149.933 399.352 149.48C398.538 149.013 397.891 148.359 397.41 147.518C396.943 146.664 396.71 145.67 396.71 144.536C396.71 143.401 396.95 142.414 397.43 141.573C397.911 140.719 398.564 140.066 399.392 139.612C400.219 139.145 401.146 138.911 402.174 138.911C403.201 138.911 404.129 139.145 404.956 139.612C405.797 140.066 406.451 140.719 406.918 141.573C407.398 142.414 407.638 143.401 407.638 144.536C407.638 145.657 407.398 146.644 406.918 147.498C406.437 148.352 405.777 149.013 404.936 149.48C404.095 149.933 403.161 150.16 402.134 150.16ZM402.134 148.939C402.854 148.939 403.522 148.779 404.135 148.459C404.749 148.125 405.243 147.631 405.617 146.978C406.004 146.31 406.197 145.496 406.197 144.536C406.197 143.575 406.01 142.768 405.637 142.114C405.263 141.447 404.769 140.953 404.155 140.633C403.542 140.299 402.874 140.132 402.154 140.132C401.433 140.132 400.766 140.299 400.152 140.633C399.539 140.953 399.045 141.447 398.671 142.114C398.311 142.768 398.131 143.575 398.131 144.536C398.131 145.496 398.311 146.31 398.671 146.978C399.045 147.631 399.532 148.125 400.132 148.459C400.746 148.779 401.413 148.939 402.134 148.939ZM414.976 150.16C413.949 150.16 413.021 149.933 412.194 149.48C411.38 149.013 410.733 148.359 410.252 147.518C409.785 146.664 409.552 145.67 409.552 144.536C409.552 143.401 409.792 142.414 410.272 141.573C410.753 140.719 411.407 140.066 412.234 139.612C413.061 139.145 413.989 138.911 415.016 138.911C416.044 138.911 416.971 139.145 417.798 139.612C418.639 140.066 419.293 140.719 419.76 141.573C420.24 142.414 420.48 143.401 420.48 144.536C420.48 145.657 420.24 146.644 419.76 147.498C419.279 148.352 418.619 149.013 417.778 149.48C416.938 149.933 416.003 150.16 414.976 150.16ZM414.976 148.939C415.697 148.939 416.364 148.779 416.978 148.459C417.591 148.125 418.085 147.631 418.459 146.978C418.846 146.31 419.039 145.496 419.039 144.536C419.039 143.575 418.852 142.768 418.479 142.114C418.105 141.447 417.611 140.953 416.998 140.633C416.384 140.299 415.717 140.132 414.996 140.132C414.275 140.132 413.608 140.299 412.994 140.633C412.381 140.953 411.887 141.447 411.513 142.114C411.153 142.768 410.973 143.575 410.973 144.536C410.973 145.496 411.153 146.31 411.513 146.978C411.887 147.631 412.374 148.125 412.974 148.459C413.588 148.779 414.255 148.939 414.976 148.939ZM428.939 150L424.435 145.096V150H423.034V135.188H424.435V143.955L428.839 139.071H430.8L425.616 144.516L430.84 150H428.939ZM439.545 141.013C439.852 140.332 440.319 139.805 440.946 139.432C441.587 139.058 442.367 138.871 443.288 138.871V140.332H442.908C441.893 140.332 441.08 140.606 440.466 141.153C439.852 141.7 439.545 142.614 439.545 143.895V150H438.144V139.071H439.545V141.013ZM446.096 137.01C445.816 137.01 445.576 136.91 445.376 136.71C445.175 136.509 445.075 136.263 445.075 135.969C445.075 135.675 445.175 135.435 445.376 135.248C445.576 135.048 445.816 134.948 446.096 134.948C446.376 134.948 446.617 135.048 446.817 135.248C447.017 135.435 447.117 135.675 447.117 135.969C447.117 136.263 447.017 136.509 446.817 136.71C446.617 136.91 446.376 137.01 446.096 137.01ZM446.797 139.071V150H445.396V139.071H446.797ZM454.553 138.911C455.581 138.911 456.475 139.151 457.235 139.632C457.996 140.112 458.543 140.719 458.877 141.453V139.071H460.278V150.28C460.278 151.281 460.057 152.168 459.617 152.942C459.19 153.716 458.59 154.31 457.816 154.724C457.042 155.151 456.161 155.364 455.174 155.364C453.773 155.364 452.605 155.031 451.671 154.363C450.75 153.696 450.176 152.789 449.95 151.641H451.331C451.571 152.402 452.024 153.009 452.692 153.463C453.372 153.916 454.2 154.143 455.174 154.143C455.881 154.143 456.515 153.99 457.075 153.683C457.636 153.389 458.076 152.949 458.396 152.362C458.716 151.775 458.877 151.081 458.877 150.28V147.578C458.53 148.325 457.976 148.946 457.215 149.44C456.468 149.92 455.581 150.16 454.553 150.16C453.552 150.16 452.652 149.927 451.851 149.46C451.064 148.993 450.443 148.332 449.99 147.478C449.549 146.624 449.329 145.637 449.329 144.516C449.329 143.395 449.549 142.414 449.99 141.573C450.443 140.719 451.064 140.066 451.851 139.612C452.652 139.145 453.552 138.911 454.553 138.911ZM458.877 144.536C458.877 143.655 458.696 142.881 458.336 142.214C457.976 141.547 457.482 141.033 456.855 140.673C456.241 140.312 455.561 140.132 454.813 140.132C454.039 140.132 453.346 140.306 452.732 140.653C452.118 141 451.631 141.507 451.271 142.174C450.924 142.828 450.75 143.608 450.75 144.516C450.75 145.41 450.924 146.197 451.271 146.878C451.631 147.545 452.118 148.058 452.732 148.419C453.346 148.766 454.039 148.939 454.813 148.939C455.561 148.939 456.241 148.759 456.855 148.399C457.482 148.038 457.976 147.525 458.336 146.858C458.696 146.19 458.877 145.416 458.877 144.536ZM468.68 138.871C469.508 138.871 470.248 139.045 470.902 139.392C471.569 139.739 472.09 140.272 472.463 140.993C472.85 141.7 473.044 142.568 473.044 143.595V150H471.663V143.755C471.663 142.568 471.362 141.66 470.762 141.033C470.175 140.406 469.368 140.092 468.34 140.092C467.286 140.092 466.445 140.426 465.818 141.093C465.191 141.76 464.877 142.741 464.877 144.035V150H463.476V135.188H464.877V140.933C465.224 140.279 465.731 139.772 466.399 139.412C467.079 139.051 467.84 138.871 468.68 138.871ZM477.964 140.252V147.038C477.964 147.705 478.091 148.165 478.344 148.419C478.598 148.672 479.045 148.799 479.685 148.799H480.966V150H479.465C478.478 150 477.744 149.773 477.263 149.319C476.783 148.852 476.543 148.092 476.543 147.038V140.252H475.022V139.071H476.543V136.329H477.964V139.071H480.966V140.252H477.964Z" fill="white"/>
<path d="M119.764 227.009C121.311 227.009 122.639 227.289 123.747 227.85C124.854 228.41 125.702 229.217 126.289 230.272C126.876 231.326 127.169 232.58 127.169 234.035C127.169 235.476 126.876 236.723 126.289 237.777C125.702 238.818 124.854 239.619 123.747 240.179C122.639 240.726 121.311 241 119.764 241H115.62V227.009H119.764ZM119.764 239.839C121.712 239.839 123.193 239.332 124.207 238.318C125.235 237.29 125.748 235.863 125.748 234.035C125.748 232.193 125.235 230.759 124.207 229.731C123.193 228.69 121.712 228.17 119.764 228.17H117.021V239.839H119.764ZM134.536 241.16C133.509 241.16 132.581 240.933 131.754 240.48C130.94 240.013 130.293 239.359 129.813 238.518C129.346 237.664 129.112 236.67 129.112 235.536C129.112 234.401 129.352 233.414 129.833 232.573C130.313 231.719 130.967 231.066 131.794 230.612C132.621 230.145 133.549 229.911 134.576 229.911C135.604 229.911 136.531 230.145 137.358 230.612C138.199 231.066 138.853 231.719 139.32 232.573C139.8 233.414 140.041 234.401 140.041 235.536C140.041 236.657 139.8 237.644 139.32 238.498C138.84 239.352 138.179 240.013 137.338 240.48C136.498 240.933 135.564 241.16 134.536 241.16ZM134.536 239.939C135.257 239.939 135.924 239.779 136.538 239.459C137.152 239.125 137.645 238.631 138.019 237.978C138.406 237.31 138.599 236.496 138.599 235.536C138.599 234.575 138.413 233.768 138.039 233.114C137.665 232.447 137.172 231.953 136.558 231.633C135.944 231.299 135.277 231.132 134.556 231.132C133.836 231.132 133.169 231.299 132.555 231.633C131.941 231.953 131.447 232.447 131.074 233.114C130.713 233.768 130.533 234.575 130.533 235.536C130.533 236.496 130.713 237.31 131.074 237.978C131.447 238.631 131.934 239.125 132.535 239.459C133.149 239.779 133.816 239.939 134.536 239.939ZM157.006 230.071L153.583 241H152.182L149.16 231.833L146.137 241H144.716L141.294 230.071H142.715L145.437 239.579L148.499 230.071H149.9L152.923 239.599L155.625 230.071H157.006ZM164.04 229.871C165.348 229.871 166.415 230.278 167.243 231.092C168.07 231.893 168.484 233.06 168.484 234.595V241H167.102V234.755C167.102 233.568 166.802 232.66 166.202 232.033C165.615 231.406 164.807 231.092 163.78 231.092C162.726 231.092 161.885 231.426 161.258 232.093C160.631 232.76 160.317 233.741 160.317 235.035V241H158.916V230.071H160.317V231.933C160.664 231.266 161.164 230.759 161.818 230.412C162.472 230.051 163.213 229.871 164.04 229.871Z" fill="white"/>
<path d="M3.05892 131.859H8.08286V133H1.65782V119.009H3.05892V131.859ZM14.8661 133.16C13.8387 133.16 12.9113 132.933 12.084 132.48C11.27 132.013 10.6228 131.359 10.1424 130.518C9.67541 129.664 9.44189 128.67 9.44189 127.536C9.44189 126.401 9.68208 125.414 10.1625 124.573C10.6428 123.719 11.2967 123.066 12.124 122.612C12.9513 122.145 13.8787 121.911 14.9062 121.911C15.9337 121.911 16.861 122.145 17.6884 122.612C18.529 123.066 19.1829 123.719 19.6499 124.573C20.1303 125.414 20.3705 126.401 20.3705 127.536C20.3705 128.657 20.1303 129.644 19.6499 130.498C19.1695 131.352 18.509 132.013 17.6683 132.48C16.8277 132.933 15.8936 133.16 14.8661 133.16ZM14.8661 131.939C15.5867 131.939 16.2539 131.779 16.8677 131.459C17.4815 131.125 17.9753 130.631 18.3489 129.978C18.7358 129.31 18.9293 128.496 18.9293 127.536C18.9293 126.575 18.7425 125.768 18.3689 125.114C17.9953 124.447 17.5015 123.953 16.8877 123.633C16.2739 123.299 15.6067 123.132 14.8862 123.132C14.1656 123.132 13.4984 123.299 12.8846 123.633C12.2708 123.953 11.7771 124.447 11.4034 125.114C11.0431 125.768 10.863 126.575 10.863 127.536C10.863 128.496 11.0431 129.31 11.4034 129.978C11.7771 130.631 12.2641 131.125 12.8646 131.459C13.4784 131.779 14.1456 131.939 14.8661 131.939ZM27.7082 133.16C26.6808 133.16 25.7534 132.933 24.9261 132.48C24.1121 132.013 23.4649 131.359 22.9845 130.518C22.5175 129.664 22.284 128.67 22.284 127.536C22.284 126.401 22.5242 125.414 23.0046 124.573C23.4849 123.719 24.1388 123.066 24.9661 122.612C25.7934 122.145 26.7208 121.911 27.7483 121.911C28.7758 121.911 29.7031 122.145 30.5305 122.612C31.3711 123.066 32.025 123.719 32.492 124.573C32.9724 125.414 33.2126 126.401 33.2126 127.536C33.2126 128.657 32.9724 129.644 32.492 130.498C32.0116 131.352 31.3511 132.013 30.5104 132.48C29.6698 132.933 28.7357 133.16 27.7082 133.16ZM27.7082 131.939C28.4288 131.939 29.096 131.779 29.7098 131.459C30.3236 131.125 30.8174 130.631 31.191 129.978C31.578 129.31 31.7714 128.496 31.7714 127.536C31.7714 126.575 31.5846 125.768 31.211 125.114C30.8374 124.447 30.3437 123.953 29.7298 123.633C29.116 123.299 28.4488 123.132 27.7283 123.132C27.0077 123.132 26.3405 123.299 25.7267 123.633C25.1129 123.953 24.6192 124.447 24.2455 125.114C23.8853 125.768 23.7051 126.575 23.7051 127.536C23.7051 128.496 23.8853 129.31 24.2455 129.978C24.6192 130.631 25.1062 131.125 25.7067 131.459C26.3205 131.779 26.9877 131.939 27.7082 131.939ZM41.6712 133L37.1677 128.096V133H35.7666V118.188H37.1677V126.955L41.5712 122.071H43.5327L38.3486 127.516L43.5727 133H41.6712ZM52.2772 118.188V133H50.8761V118.188H52.2772ZM65.3378 126.975C65.3378 127.456 65.3244 127.823 65.2977 128.076H56.2306C56.2707 128.903 56.4708 129.611 56.8311 130.198C57.1914 130.785 57.6651 131.232 58.2522 131.539C58.8393 131.832 59.4798 131.979 60.1737 131.979C61.0811 131.979 61.8417 131.759 62.4555 131.319C63.0827 130.878 63.4963 130.285 63.6965 129.537H65.1776C64.9108 130.605 64.337 131.479 63.4563 132.159C62.5889 132.827 61.4947 133.16 60.1737 133.16C59.1462 133.16 58.2255 132.933 57.4115 132.48C56.5976 132.013 55.9571 131.359 55.49 130.518C55.0363 129.664 54.8095 128.67 54.8095 127.536C54.8095 126.401 55.0363 125.407 55.49 124.553C55.9437 123.699 56.5776 123.046 57.3915 122.592C58.2055 122.138 59.1329 121.911 60.1737 121.911C61.2145 121.911 62.1219 122.138 62.8958 122.592C63.6831 123.046 64.2836 123.659 64.6973 124.433C65.1243 125.194 65.3378 126.041 65.3378 126.975ZM63.9166 126.935C63.93 126.121 63.7632 125.427 63.4163 124.854C63.0827 124.28 62.6223 123.846 62.0352 123.553C61.448 123.259 60.8075 123.112 60.1137 123.112C59.0728 123.112 58.1855 123.446 57.4516 124.113C56.7177 124.78 56.3107 125.721 56.2306 126.935H63.9166ZM72.2046 123.252H69.6626V133H68.2615V123.252H66.7403V122.071H68.2615V121.311C68.2615 120.123 68.5617 119.249 69.1622 118.689C69.776 118.128 70.7634 117.848 72.1245 117.848V119.049C71.2171 119.049 70.5766 119.223 70.203 119.569C69.8427 119.916 69.6626 120.497 69.6626 121.311V122.071H72.2046V123.252ZM76.2316 123.252V130.038C76.2316 130.705 76.3584 131.165 76.6119 131.419C76.8655 131.672 77.3125 131.799 77.953 131.799H79.234V133H77.7328C76.7454 133 76.0114 132.773 75.5311 132.319C75.0507 131.852 74.8105 131.092 74.8105 130.038V123.252H73.2893V122.071H74.8105V119.329H76.2316V122.071H79.234V123.252H76.2316Z" fill="white"/>
<path d="M334.5 136.5L347 149H382.5" stroke="white" stroke-linecap="round"/>
<path d="M231 224L214.5 238.5H176" stroke="white" stroke-linecap="round"/>
<path fill-rule="evenodd" clip-rule="evenodd" d="M238.601 76.6097L249.404 87.491L246.685 90.1915L237.231 80.6701L227.71 90.1236L225.009 87.4037L235.891 76.6C236.251 76.242 236.739 76.0419 237.248 76.0437C237.756 76.0455 238.243 76.2491 238.601 76.6097Z" fill="#FF6A00"/>
<rect x="213.5" y="59.5" width="47" height="47" rx="9.5" stroke="white"/>
<path fill-rule="evenodd" clip-rule="evenodd" d="M162.61 141.845L173.491 131.041L176.191 133.761L166.67 143.214L176.123 152.736L173.404 155.436L162.6 144.555C162.242 144.194 162.042 143.706 162.044 143.198C162.045 142.689 162.249 142.203 162.61 141.845Z" fill="#FF6A00"/>
<rect x="145.5" y="118.5" width="47" height="47" rx="9.5" stroke="white"/>
<path fill-rule="evenodd" clip-rule="evenodd" d="M234.845 202.591L224.041 191.71L226.761 189.01L236.215 198.531L245.736 189.077L248.437 191.797L237.555 202.601C237.195 202.959 236.706 203.159 236.198 203.157C235.69 203.156 235.203 202.952 234.845 202.591Z" fill="#FF6A00"/>
<rect x="213.5" y="171.5" width="47" height="47" rx="9.5" stroke="white"/>
<path fill-rule="evenodd" clip-rule="evenodd" d="M309.592 142.601L298.71 153.405L296.01 150.685L305.531 141.232L296.078 131.71L298.798 129.01L309.601 139.891C309.959 140.252 310.159 140.74 310.158 141.248C310.156 141.756 309.952 142.243 309.592 142.601Z" fill="#FF6A00"/>
<rect x="279.5" y="118.5" width="47" height="47" rx="9.5" stroke="white"/>
</svg>
