<svg width="147" height="49" viewBox="0 0 147 49" fill="none" xmlns="http://www.w3.org/2000/svg">
<path d="M65.1491 22.9945C65.1491 21.6201 65.4493 20.3925 66.0498 19.3116C66.6502 18.2174 67.4709 17.3701 68.5117 16.7696C69.5525 16.1558 70.7134 15.8489 71.9944 15.8489C73.5557 15.8489 74.89 16.2225 75.9976 16.9698C77.1184 17.7037 77.9324 18.7445 78.4395 20.0922H76.7982C76.3979 19.1448 75.7841 18.4042 74.9568 17.8705C74.1428 17.3367 73.1553 17.0699 71.9944 17.0699C70.967 17.0699 70.0396 17.31 69.2122 17.7904C68.3983 18.2708 67.7578 18.9647 67.2907 19.8721C66.8237 20.7661 66.5902 21.8069 66.5902 22.9945C66.5902 24.1821 66.8237 25.2229 67.2907 26.117C67.7578 27.011 68.3983 27.6982 69.2122 28.1786C70.0396 28.6589 70.967 28.8991 71.9944 28.8991C73.1553 28.8991 74.1428 28.6389 74.9568 28.1185C75.7841 27.5848 76.3979 26.8509 76.7982 25.9168H78.4395C77.9324 27.2512 77.1184 28.2853 75.9976 29.0192C74.8767 29.7531 73.5423 30.1201 71.9944 30.1201C70.7134 30.1201 69.5525 29.8199 68.5117 29.2194C67.4709 28.6056 66.6502 27.7582 66.0498 26.6774C65.4493 25.5965 65.1491 24.3689 65.1491 22.9945ZM80.5909 24.5157C80.5909 23.3948 80.811 22.4141 81.2514 21.5734C81.7051 20.7194 82.3256 20.0655 83.1128 19.6119C83.9135 19.1448 84.8142 18.9113 85.815 18.9113C86.8558 18.9113 87.7498 19.1515 88.4971 19.6319C89.2577 20.1122 89.8047 20.7261 90.1383 21.4733V19.0714H91.5394V30H90.1383V27.5781C89.7914 28.3254 89.2376 28.9458 88.477 29.4396C87.7298 29.9199 86.8358 30.1601 85.7949 30.1601C84.8075 30.1601 83.9135 29.9266 83.1128 29.4596C82.3256 28.9925 81.7051 28.332 81.2514 27.478C80.811 26.624 80.5909 25.6366 80.5909 24.5157ZM90.1383 24.5357C90.1383 23.655 89.9582 22.8811 89.5979 22.2139C89.2376 21.5467 88.7439 21.033 88.1168 20.6727C87.5029 20.3124 86.8224 20.1323 86.0752 20.1323C85.3012 20.1323 84.6073 20.3057 83.9935 20.6527C83.3797 20.9996 82.8927 21.5067 82.5324 22.1739C82.1854 22.8277 82.012 23.6083 82.012 24.5157C82.012 25.4097 82.1854 26.197 82.5324 26.8776C82.8927 27.5447 83.3797 28.0585 83.9935 28.4188C84.6073 28.7657 85.3012 28.9392 86.0752 28.9392C86.8224 28.9392 87.5029 28.759 88.1168 28.3987C88.7439 28.0385 89.2376 27.5247 89.5979 26.8575C89.9582 26.1903 90.1383 25.4164 90.1383 24.5357ZM107.748 18.8713C109.029 18.8713 110.07 19.2783 110.871 20.0922C111.685 20.8929 112.092 22.0604 112.092 23.595V30H110.711V23.7551C110.711 22.5675 110.424 21.6601 109.85 21.033C109.276 20.4058 108.496 20.0922 107.508 20.0922C106.481 20.0922 105.66 20.4325 105.046 21.113C104.432 21.7936 104.125 22.781 104.125 24.0754V30H102.744V23.7551C102.744 22.5675 102.457 21.6601 101.884 21.033C101.31 20.4058 100.523 20.0922 99.5218 20.0922C98.4943 20.0922 97.6737 20.4325 97.0599 21.113C96.4461 21.7936 96.1391 22.781 96.1391 24.0754V30H94.738V19.0714H96.1391V20.9529C96.4861 20.2724 96.9798 19.7586 97.6203 19.4117C98.2608 19.0514 98.9747 18.8713 99.762 18.8713C100.709 18.8713 101.537 19.0981 102.244 19.5518C102.964 20.0055 103.485 20.6727 103.805 21.5534C104.099 20.686 104.599 20.0255 105.306 19.5718C106.027 19.1048 106.841 18.8713 107.748 18.8713ZM125.091 23.9753C125.091 24.4557 125.078 24.8226 125.051 25.0761H115.984C116.024 25.9035 116.224 26.6107 116.584 27.1978C116.945 27.7849 117.418 28.2319 118.006 28.5389C118.593 28.8324 119.233 28.9792 119.927 28.9792C120.834 28.9792 121.595 28.759 122.209 28.3187C122.836 27.8783 123.25 27.2845 123.45 26.5373H124.931C124.664 27.6048 124.09 28.4788 123.21 29.1593C122.342 29.8265 121.248 30.1601 119.927 30.1601C118.9 30.1601 117.979 29.9333 117.165 29.4796C116.351 29.0126 115.71 28.3587 115.243 27.5181C114.79 26.6641 114.563 25.6699 114.563 24.5357C114.563 23.4015 114.79 22.4074 115.243 21.5534C115.697 20.6994 116.331 20.0455 117.145 19.5918C117.959 19.1381 118.886 18.9113 119.927 18.9113C120.968 18.9113 121.875 19.1381 122.649 19.5918C123.436 20.0455 124.037 20.6593 124.451 21.4333C124.878 22.1939 125.091 23.0412 125.091 23.9753ZM123.67 23.9352C123.683 23.1213 123.517 22.4274 123.17 21.8536C122.836 21.2798 122.376 20.8462 121.788 20.5526C121.201 20.259 120.561 20.1122 119.867 20.1122C118.826 20.1122 117.939 20.4458 117.205 21.113C116.471 21.7802 116.064 22.721 115.984 23.9352H123.67ZM129.056 21.013C129.362 20.3324 129.83 19.8053 130.457 19.4317C131.097 19.0581 131.878 18.8713 132.799 18.8713V20.3324H132.418C131.404 20.3324 130.59 20.606 129.976 21.1531C129.362 21.7002 129.056 22.6142 129.056 23.8952V30H127.654V19.0714H129.056V21.013ZM134.266 24.5157C134.266 23.3948 134.486 22.4141 134.926 21.5734C135.38 20.7194 136 20.0655 136.788 19.6119C137.588 19.1448 138.489 18.9113 139.49 18.9113C140.531 18.9113 141.425 19.1515 142.172 19.6319C142.933 20.1122 143.48 20.7261 143.813 21.4733V19.0714H145.214V30H143.813V27.5781C143.466 28.3254 142.913 28.9458 142.152 29.4396C141.405 29.9199 140.511 30.1601 139.47 30.1601C138.482 30.1601 137.588 29.9266 136.788 29.4596C136 28.9925 135.38 28.332 134.926 27.478C134.486 26.624 134.266 25.6366 134.266 24.5157ZM143.813 24.5357C143.813 23.655 143.633 22.8811 143.273 22.2139C142.913 21.5467 142.419 21.033 141.792 20.6727C141.178 20.3124 140.497 20.1323 139.75 20.1323C138.976 20.1323 138.282 20.3057 137.668 20.6527C137.055 20.9996 136.568 21.5067 136.207 22.1739C135.86 22.8277 135.687 23.6083 135.687 24.5157C135.687 25.4097 135.86 26.197 136.207 26.8776C136.568 27.5447 137.055 28.0585 137.668 28.4188C138.282 28.7657 138.976 28.9392 139.75 28.9392C140.497 28.9392 141.178 28.759 141.792 28.3987C142.419 28.0385 142.913 27.5247 143.273 26.8575C143.633 26.1903 143.813 25.4164 143.813 24.5357Z" fill="white"/>
<path d="M31.6457 14.1429V18.4084H22.741V23.0165H29.404V27.1575H22.741V36H17.4168V14.1429H31.6457Z" fill="#FF6A00"/>
<rect x="0.5" y="0.5" width="47" height="47" rx="9.5" stroke="white"/>
</svg>
