<svg width="386" height="231" viewBox="0 0 386 231" fill="none" xmlns="http://www.w3.org/2000/svg">
<path d="M88 146L78.5 132H45" stroke="white" stroke-linecap="round"/>
<path d="M189.5 174.5V200.5" stroke="white" stroke-linecap="round"/>
<path d="M282.391 8.00903V9.16994H276.227V14.394H281.431V15.5549H276.227V22H274.826V8.00903H282.391ZM289.48 22.1601C288.453 22.1601 287.525 21.9333 286.698 21.4796C285.884 21.0126 285.237 20.3587 284.757 19.5181C284.29 18.6641 284.056 17.6699 284.056 16.5357C284.056 15.4015 284.296 14.4141 284.777 13.5734C285.257 12.7194 285.911 12.0655 286.738 11.6119C287.565 11.1448 288.493 10.9113 289.52 10.9113C290.548 10.9113 291.475 11.1448 292.303 11.6119C293.143 12.0655 293.797 12.7194 294.264 13.5734C294.744 14.4141 294.985 15.4015 294.985 16.5357C294.985 17.6566 294.744 18.644 294.264 19.498C293.784 20.352 293.123 21.0126 292.283 21.4796C291.442 21.9333 290.508 22.1601 289.48 22.1601ZM289.48 20.9392C290.201 20.9392 290.868 20.779 291.482 20.4588C292.096 20.1252 292.589 19.6315 292.963 18.9776C293.35 18.3104 293.543 17.4965 293.543 16.5357C293.543 15.575 293.357 14.7677 292.983 14.1138C292.609 13.4466 292.116 12.9529 291.502 12.6327C290.888 12.2991 290.221 12.1323 289.5 12.1323C288.78 12.1323 288.113 12.2991 287.499 12.6327C286.885 12.9529 286.391 13.4466 286.018 14.1138C285.657 14.7677 285.477 15.575 285.477 16.5357C285.477 17.4965 285.657 18.3104 286.018 18.9776C286.391 19.6315 286.878 20.1252 287.479 20.4588C288.093 20.779 288.76 20.9392 289.48 20.9392ZM298.94 13.013C299.247 12.3324 299.714 11.8053 300.341 11.4317C300.981 11.0581 301.762 10.8713 302.683 10.8713V12.3324H302.302C301.288 12.3324 300.474 12.606 299.86 13.1531C299.247 13.7002 298.94 14.6142 298.94 15.8952V22H297.539V11.0714H298.94V13.013ZM319.202 11.0714L315.779 22H314.378L311.356 12.8328L308.333 22H306.912L303.489 11.0714H304.911L307.633 20.5789L310.695 11.0714H312.096L315.119 20.5989L317.821 11.0714H319.202ZM320.471 16.5157C320.471 15.3948 320.692 14.4141 321.132 13.5734C321.586 12.7194 322.206 12.0655 322.993 11.6119C323.794 11.1448 324.695 10.9113 325.695 10.9113C326.736 10.9113 327.63 11.1515 328.378 11.6319C329.138 12.1122 329.685 12.7261 330.019 13.4733V11.0714H331.42V22H330.019V19.5781C329.672 20.3254 329.118 20.9458 328.358 21.4396C327.61 21.9199 326.716 22.1601 325.675 22.1601C324.688 22.1601 323.794 21.9266 322.993 21.4596C322.206 20.9925 321.586 20.332 321.132 19.478C320.692 18.624 320.471 17.6366 320.471 16.5157ZM330.019 16.5357C330.019 15.655 329.839 14.8811 329.478 14.2139C329.118 13.5467 328.624 13.033 327.997 12.6727C327.383 12.3124 326.703 12.1323 325.956 12.1323C325.182 12.1323 324.488 12.3057 323.874 12.6527C323.26 12.9996 322.773 13.5067 322.413 14.1739C322.066 14.8277 321.892 15.6083 321.892 16.5157C321.892 17.4097 322.066 18.197 322.413 18.8776C322.773 19.5447 323.26 20.0585 323.874 20.4188C324.488 20.7657 325.182 20.9392 325.956 20.9392C326.703 20.9392 327.383 20.759 327.997 20.3987C328.624 20.0385 329.118 19.5247 329.478 18.8575C329.839 18.1903 330.019 17.4164 330.019 16.5357ZM336.02 13.013C336.327 12.3324 336.794 11.8053 337.421 11.4317C338.061 11.0581 338.842 10.8713 339.763 10.8713V12.3324H339.382C338.368 12.3324 337.554 12.606 336.94 13.1531C336.327 13.7002 336.02 14.6142 336.02 15.8952V22H334.619V11.0714H336.02V13.013ZM341.23 16.5157C341.23 15.3948 341.457 14.4141 341.91 13.5734C342.364 12.7194 342.985 12.0655 343.772 11.6119C344.572 11.1448 345.473 10.9113 346.474 10.9113C347.435 10.9113 348.302 11.1448 349.076 11.6119C349.85 12.0789 350.417 12.686 350.777 13.4333V7.18838H352.178V22H350.777V19.5581C350.444 20.3187 349.897 20.9458 349.136 21.4396C348.375 21.9199 347.481 22.1601 346.454 22.1601C345.453 22.1601 344.552 21.9266 343.752 21.4596C342.964 20.9925 342.344 20.332 341.89 19.478C341.45 18.624 341.23 17.6366 341.23 16.5157ZM350.777 16.5357C350.777 15.655 350.597 14.8811 350.237 14.2139C349.877 13.5467 349.383 13.033 348.756 12.6727C348.142 12.3124 347.461 12.1323 346.714 12.1323C345.94 12.1323 345.246 12.3057 344.632 12.6527C344.019 12.9996 343.532 13.5067 343.171 14.1739C342.824 14.8277 342.651 15.6083 342.651 16.5157C342.651 17.4097 342.824 18.197 343.171 18.8776C343.532 19.5447 344.019 20.0585 344.632 20.4188C345.246 20.7657 345.94 20.9392 346.714 20.9392C347.461 20.9392 348.142 20.759 348.756 20.3987C349.383 20.0385 349.877 19.5247 350.237 18.8575C350.597 18.1903 350.777 17.4164 350.777 16.5357Z" fill="white"/>
<path d="M345.233 201L341.77 195.155H339.188V201H337.787V187.009H341.99C343.551 187.009 344.732 187.383 345.533 188.13C346.347 188.877 346.754 189.858 346.754 191.072C346.754 192.086 346.46 192.954 345.873 193.674C345.299 194.381 344.445 194.842 343.311 195.055L346.914 201H345.233ZM339.188 194.015H342.01C343.104 194.015 343.925 193.748 344.472 193.214C345.033 192.68 345.313 191.966 345.313 191.072C345.313 190.151 345.046 189.444 344.512 188.951C343.978 188.443 343.138 188.19 341.99 188.19H339.188V194.015ZM350.235 188.01C349.955 188.01 349.715 187.91 349.514 187.71C349.314 187.509 349.214 187.263 349.214 186.969C349.214 186.675 349.314 186.435 349.514 186.248C349.715 186.048 349.955 185.948 350.235 185.948C350.515 185.948 350.755 186.048 350.955 186.248C351.156 186.435 351.256 186.675 351.256 186.969C351.256 187.263 351.156 187.509 350.955 187.71C350.755 187.91 350.515 188.01 350.235 188.01ZM350.935 190.071V201H349.534V190.071H350.935ZM358.692 189.911C359.719 189.911 360.613 190.151 361.374 190.632C362.135 191.112 362.682 191.719 363.015 192.453V190.071H364.416V201.28C364.416 202.281 364.196 203.168 363.756 203.942C363.329 204.716 362.728 205.31 361.954 205.724C361.18 206.151 360.3 206.364 359.312 206.364C357.911 206.364 356.744 206.031 355.81 205.363C354.889 204.696 354.315 203.789 354.088 202.641H355.469C355.71 203.402 356.163 204.009 356.83 204.463C357.511 204.916 358.338 205.143 359.312 205.143C360.02 205.143 360.653 204.99 361.214 204.683C361.774 204.389 362.215 203.949 362.535 203.362C362.855 202.775 363.015 202.081 363.015 201.28V198.578C362.668 199.325 362.115 199.946 361.354 200.44C360.607 200.92 359.719 201.16 358.692 201.16C357.691 201.16 356.79 200.927 355.99 200.46C355.202 199.993 354.582 199.332 354.128 198.478C353.688 197.624 353.468 196.637 353.468 195.516C353.468 194.395 353.688 193.414 354.128 192.573C354.582 191.719 355.202 191.066 355.99 190.612C356.79 190.145 357.691 189.911 358.692 189.911ZM363.015 195.536C363.015 194.655 362.835 193.881 362.475 193.214C362.115 192.547 361.621 192.033 360.994 191.673C360.38 191.312 359.699 191.132 358.952 191.132C358.178 191.132 357.484 191.306 356.87 191.653C356.257 192 355.77 192.507 355.409 193.174C355.062 193.828 354.889 194.608 354.889 195.516C354.889 196.41 355.062 197.197 355.409 197.878C355.77 198.545 356.257 199.058 356.87 199.419C357.484 199.766 358.178 199.939 358.952 199.939C359.699 199.939 360.38 199.759 360.994 199.399C361.621 199.038 362.115 198.525 362.475 197.858C362.835 197.19 363.015 196.416 363.015 195.536ZM372.819 189.871C373.646 189.871 374.387 190.045 375.041 190.392C375.708 190.739 376.228 191.272 376.602 191.993C376.989 192.7 377.182 193.568 377.182 194.595V201H375.801V194.755C375.801 193.568 375.501 192.66 374.901 192.033C374.314 191.406 373.506 191.092 372.479 191.092C371.425 191.092 370.584 191.426 369.957 192.093C369.33 192.76 369.016 193.741 369.016 195.035V201H367.615V186.188H369.016V191.933C369.363 191.279 369.87 190.772 370.537 190.412C371.218 190.051 371.978 189.871 372.819 189.871ZM382.103 191.252V198.038C382.103 198.705 382.229 199.165 382.483 199.419C382.736 199.672 383.183 199.799 383.824 199.799H385.105V201H383.604C382.616 201 381.882 200.773 381.402 200.319C380.922 199.852 380.681 199.092 380.681 198.038V191.252H379.16V190.071H380.681V187.329H382.103V190.071H385.105V191.252H382.103Z" fill="white"/>
<path d="M145.182 215.774C145.969 215.921 146.637 216.321 147.184 216.975C147.731 217.629 148.004 218.39 148.004 219.257C148.004 219.964 147.824 220.605 147.464 221.179C147.117 221.739 146.603 222.186 145.923 222.52C145.242 222.84 144.428 223 143.481 223H138.637V209.009H143.341C144.755 209.009 145.829 209.336 146.563 209.99C147.311 210.644 147.684 211.491 147.684 212.532C147.684 213.399 147.451 214.106 146.984 214.653C146.517 215.187 145.916 215.561 145.182 215.774ZM140.038 215.194H143.301C144.248 215.194 144.975 214.974 145.482 214.533C146.003 214.08 146.263 213.459 146.263 212.672C146.263 211.898 146.003 211.291 145.482 210.85C144.975 210.41 144.228 210.19 143.241 210.19H140.038V215.194ZM143.381 221.819C144.395 221.819 145.182 221.579 145.743 221.099C146.316 220.618 146.603 219.958 146.603 219.117C146.603 218.276 146.303 217.609 145.703 217.115C145.115 216.608 144.322 216.355 143.321 216.355H140.038V221.819H143.381ZM149.94 217.516C149.94 216.395 150.16 215.414 150.6 214.573C151.054 213.719 151.674 213.066 152.462 212.612C153.262 212.145 154.163 211.911 155.164 211.911C156.204 211.911 157.098 212.151 157.846 212.632C158.606 213.112 159.153 213.726 159.487 214.473V212.071H160.888V223H159.487V220.578C159.14 221.325 158.586 221.946 157.826 222.44C157.078 222.92 156.184 223.16 155.144 223.16C154.156 223.16 153.262 222.927 152.462 222.46C151.674 221.993 151.054 221.332 150.6 220.478C150.16 219.624 149.94 218.637 149.94 217.516ZM159.487 217.536C159.487 216.655 159.307 215.881 158.947 215.214C158.586 214.547 158.093 214.033 157.465 213.673C156.852 213.312 156.171 213.132 155.424 213.132C154.65 213.132 153.956 213.306 153.342 213.653C152.728 214 152.241 214.507 151.881 215.174C151.534 215.828 151.361 216.608 151.361 217.516C151.361 218.41 151.534 219.197 151.881 219.878C152.241 220.545 152.728 221.058 153.342 221.419C153.956 221.766 154.65 221.939 155.424 221.939C156.171 221.939 156.852 221.759 157.465 221.399C158.093 221.038 158.586 220.525 158.947 219.858C159.307 219.19 159.487 218.416 159.487 217.536ZM163.446 217.536C163.446 216.401 163.673 215.414 164.127 214.573C164.58 213.719 165.208 213.066 166.008 212.612C166.809 212.145 167.723 211.911 168.75 211.911C170.098 211.911 171.206 212.245 172.073 212.912C172.954 213.579 173.521 214.487 173.774 215.634H172.273C172.086 214.847 171.679 214.233 171.052 213.793C170.438 213.339 169.671 213.112 168.75 213.112C168.016 213.112 167.356 213.279 166.769 213.613C166.182 213.946 165.715 214.447 165.368 215.114C165.034 215.768 164.867 216.575 164.867 217.536C164.867 218.496 165.034 219.31 165.368 219.978C165.715 220.645 166.182 221.145 166.769 221.479C167.356 221.812 168.016 221.979 168.75 221.979C169.671 221.979 170.438 221.759 171.052 221.319C171.679 220.865 172.086 220.238 172.273 219.437H173.774C173.521 220.558 172.954 221.459 172.073 222.139C171.192 222.82 170.085 223.16 168.75 223.16C167.723 223.16 166.809 222.933 166.008 222.48C165.208 222.013 164.58 221.359 164.127 220.518C163.673 219.664 163.446 218.67 163.446 217.536ZM182.267 223L177.763 218.096V223H176.362V208.188H177.763V216.955L182.167 212.071H184.128L178.944 217.516L184.168 223H182.267ZM200.39 212.071L196.968 223H195.566L192.544 213.833L189.522 223H188.101L184.678 212.071H186.099L188.821 221.579L191.884 212.071H193.285L196.307 221.599L199.009 212.071H200.39ZM201.66 217.516C201.66 216.395 201.88 215.414 202.32 214.573C202.774 213.719 203.394 213.066 204.182 212.612C204.982 212.145 205.883 211.911 206.884 211.911C207.925 211.911 208.819 212.151 209.566 212.632C210.327 213.112 210.874 213.726 211.207 214.473V212.071H212.608V223H211.207V220.578C210.86 221.325 210.307 221.946 209.546 222.44C208.799 222.92 207.905 223.16 206.864 223.16C205.876 223.16 204.982 222.927 204.182 222.46C203.394 221.993 202.774 221.332 202.32 220.478C201.88 219.624 201.66 218.637 201.66 217.516ZM211.207 217.536C211.207 216.655 211.027 215.881 210.667 215.214C210.307 214.547 209.813 214.033 209.186 213.673C208.572 213.312 207.891 213.132 207.144 213.132C206.37 213.132 205.676 213.306 205.062 213.653C204.449 214 203.962 214.507 203.601 215.174C203.254 215.828 203.081 216.608 203.081 217.516C203.081 218.41 203.254 219.197 203.601 219.878C203.962 220.545 204.449 221.058 205.062 221.419C205.676 221.766 206.37 221.939 207.144 221.939C207.891 221.939 208.572 221.759 209.186 221.399C209.813 221.038 210.307 220.525 210.667 219.858C211.027 219.19 211.207 218.416 211.207 217.536ZM217.208 214.013C217.515 213.332 217.982 212.805 218.609 212.432C219.25 212.058 220.03 211.871 220.951 211.871V213.332H220.571C219.557 213.332 218.743 213.606 218.129 214.153C217.515 214.7 217.208 215.614 217.208 216.895V223H215.807V212.071H217.208V214.013ZM222.418 217.516C222.418 216.395 222.645 215.414 223.099 214.573C223.552 213.719 224.173 213.066 224.96 212.612C225.761 212.145 226.662 211.911 227.662 211.911C228.623 211.911 229.49 212.145 230.264 212.612C231.038 213.079 231.605 213.686 231.966 214.433V208.188H233.367V223H231.966V220.558C231.632 221.319 231.085 221.946 230.324 222.44C229.564 222.92 228.67 223.16 227.642 223.16C226.642 223.16 225.741 222.927 224.94 222.46C224.153 221.993 223.532 221.332 223.079 220.478C222.638 219.624 222.418 218.637 222.418 217.516ZM231.966 217.536C231.966 216.655 231.786 215.881 231.425 215.214C231.065 214.547 230.571 214.033 229.944 213.673C229.33 213.312 228.65 213.132 227.903 213.132C227.129 213.132 226.435 213.306 225.821 213.653C225.207 214 224.72 214.507 224.36 215.174C224.013 215.828 223.839 216.608 223.839 217.516C223.839 218.41 224.013 219.197 224.36 219.878C224.72 220.545 225.207 221.058 225.821 221.419C226.435 221.766 227.129 221.939 227.903 221.939C228.65 221.939 229.33 221.759 229.944 221.399C230.571 221.038 231.065 220.525 231.425 219.858C231.786 219.19 231.966 218.416 231.966 217.536Z" fill="white"/>
<path d="M3.24272 129.859H8.26666V131H1.84163V117.009H3.24272V129.859ZM20.154 124.975C20.154 125.456 20.1406 125.823 20.1139 126.076H11.0468C11.0868 126.903 11.287 127.611 11.6473 128.198C12.0076 128.785 12.4813 129.232 13.0684 129.539C13.6555 129.832 14.296 129.979 14.9899 129.979C15.8973 129.979 16.6579 129.759 17.2717 129.319C17.8989 128.878 18.3125 128.285 18.5127 127.537H19.9938C19.727 128.605 19.1532 129.479 18.2725 130.159C17.4051 130.827 16.3109 131.16 14.9899 131.16C13.9624 131.16 13.0417 130.933 12.2277 130.48C11.4138 130.013 10.7733 129.359 10.3062 128.518C9.85254 127.664 9.6257 126.67 9.6257 125.536C9.6257 124.401 9.85254 123.407 10.3062 122.553C10.7599 121.699 11.3938 121.046 12.2077 120.592C13.0217 120.138 13.9491 119.911 14.9899 119.911C16.0307 119.911 16.9381 120.138 17.712 120.592C18.4993 121.046 19.0998 121.659 19.5135 122.433C19.9405 123.194 20.154 124.041 20.154 124.975ZM18.7328 124.935C18.7462 124.121 18.5794 123.427 18.2324 122.854C17.8989 122.28 17.4385 121.846 16.8514 121.553C16.2642 121.259 15.6237 121.112 14.9299 121.112C13.889 121.112 13.0017 121.446 12.2678 122.113C11.5339 122.78 11.1269 123.721 11.0468 124.935H18.7328ZM27.0207 121.252H24.4788V131H23.0777V121.252H21.5565V120.071H23.0777V119.311C23.0777 118.123 23.3779 117.249 23.9784 116.689C24.5922 116.128 25.5796 115.848 26.9407 115.848V117.049C26.0333 117.049 25.3928 117.223 25.0192 117.569C24.6589 117.916 24.4788 118.497 24.4788 119.311V120.071H27.0207V121.252ZM31.0478 121.252V128.038C31.0478 128.705 31.1746 129.165 31.4281 129.419C31.6816 129.672 32.1287 129.799 32.7692 129.799H34.0502V131H32.549C31.5615 131 30.8276 130.773 30.3473 130.319C29.8669 129.852 29.6267 129.092 29.6267 128.038V121.252H28.1055V120.071H29.6267V117.329H31.0478V120.071H34.0502V121.252H31.0478Z" fill="white"/>
<path d="M257 177L269.5 193.5H310.5" stroke="white" stroke-linecap="round"/>
<path d="M186.5 44.5L217 17H263.5" stroke="white" stroke-linecap="round"/>
<path d="M188.134 66.1429L182.436 88H175.991L172.504 73.6154L168.892 88H162.447L156.905 66.1429H162.603L165.747 82.0531L169.639 66.1429H175.493L179.229 82.0531L182.405 66.1429H188.134Z" fill="#FF6A00"/>
<rect x="148.5" y="52.5" width="47" height="47" rx="9.5" stroke="white"/>
<path d="M125.558 152.139H117.401L116.093 156H110.52L118.428 134.143H124.593L132.502 156H126.866L125.558 152.139ZM124.188 148.029L121.48 140.027L118.802 148.029H124.188Z" fill="#FF6A00"/>
<rect x="98.5" y="121.5" width="47" height="47" rx="9.5" stroke="white"/>
<path d="M188.261 155.218C186.663 155.218 185.23 154.958 183.964 154.44C182.698 153.921 181.681 153.153 180.913 152.136C180.166 151.118 179.771 149.894 179.73 148.462H185.397C185.48 149.271 185.76 149.894 186.237 150.33C186.715 150.745 187.337 150.952 188.105 150.952C188.894 150.952 189.517 150.776 189.973 150.423C190.43 150.049 190.658 149.541 190.658 148.897C190.658 148.358 190.472 147.911 190.098 147.559C189.745 147.206 189.299 146.915 188.759 146.687C188.24 146.458 187.493 146.199 186.517 145.908C185.106 145.473 183.954 145.037 183.061 144.601C182.169 144.165 181.401 143.521 180.757 142.67C180.114 141.819 179.792 140.709 179.792 139.339C179.792 137.305 180.529 135.717 182.003 134.575C183.477 133.413 185.397 132.832 187.763 132.832C190.171 132.832 192.111 133.413 193.585 134.575C195.059 135.717 195.848 137.315 195.951 139.37H190.191C190.15 138.664 189.89 138.114 189.413 137.72C188.936 137.305 188.323 137.097 187.576 137.097C186.933 137.097 186.414 137.274 186.019 137.626C185.625 137.958 185.428 138.446 185.428 139.09C185.428 139.795 185.76 140.346 186.424 140.74C187.088 141.134 188.126 141.56 189.538 142.016C190.949 142.494 192.091 142.951 192.962 143.386C193.855 143.822 194.623 144.455 195.266 145.286C195.91 146.116 196.232 147.185 196.232 148.493C196.232 149.738 195.91 150.869 195.266 151.886C194.644 152.904 193.73 153.713 192.527 154.315C191.323 154.917 189.901 155.218 188.261 155.218Z" fill="#FF6A00"/>
<rect x="165.5" y="120.5" width="47" height="47" rx="9.5" stroke="white"/>
<path d="M254.308 134.143C256.612 134.143 258.626 134.6 260.348 135.513C262.071 136.426 263.4 137.713 264.334 139.374C265.289 141.013 265.766 142.913 265.766 145.071C265.766 147.209 265.289 149.109 264.334 150.769C263.4 152.43 262.061 153.717 260.317 154.63C258.594 155.543 256.591 156 254.308 156H246.119V134.143H254.308ZM253.966 151.392C255.979 151.392 257.546 150.842 258.667 149.742C259.788 148.642 260.348 147.085 260.348 145.071C260.348 143.058 259.788 141.491 258.667 140.37C257.546 139.249 255.979 138.689 253.966 138.689H251.444V151.392H253.966Z" fill="#FF6A00"/>
<rect x="232.5" y="121.5" width="47" height="47" rx="9.5" stroke="white"/>
</svg>
